<?xml version="1.0" encoding="utf-8"?>
<!-- Generator: Adobe Illustrator 25.2.3, SVG Export Plug-In . SVG Version: 6.00 Build 0)  -->
<svg version="1.1" id="Layer_1" xmlns="http://www.w3.org/2000/svg" xmlns:xlink="http://www.w3.org/1999/xlink" x="0px" y="0px"
	 viewBox="0 0 500 500" style="enable-background:new 0 0 500 500;" xml:space="preserve">
<style type="text/css">
	.st0{fill:url(#SVGID_1_);}
	.st1{fill:url(#SVGID_2_);}
</style>
<g>
	<linearGradient id="SVGID_1_" gradientUnits="userSpaceOnUse" x1="223.9435" y1="62.4541" x2="371.753" y2="439.216">
		<stop  offset="0" style="stop-color:#235657"/>
		<stop  offset="1" style="stop-color:#23569C"/>
	</linearGradient>
	<path class="st0" d="M356.35,237c33.17-16.83,49.76-44.31,49.76-82.43c0-30.45-9.16-55.57-27.48-75.38
		c-18.56-19.55-43.57-29.33-96.38-29.33l-63.5,4.46v391.37c8.91,0,42.41,0.61,57.76,1.86c17.08,1.73,32.92,2.6,47.53,2.6
		c39.6,0,68.32-10.89,86.15-32.68c17.57-21.78,26.36-47.16,26.36-76.12C436.56,283.92,409.82,249.14,356.35,237z M270.58,155.68
		c0-32.68,2.23-55.7,6.68-69.07c6.43-5.2,14.97-7.8,25.62-7.8c19.31,0,35.89,6.44,49.76,19.31c13.86,13.12,20.79,32.18,20.79,57.18
		c0,24.26-6.44,42.83-19.31,55.7c-12.87,12.87-31.19,19.31-54.96,19.31h-28.59V155.68z M386.8,397.04
		c-12.38,16.84-33.05,25.25-62.01,25.25c-17.33,0-30.33-3.34-38.99-10.03c-10.15-12.38-15.22-41.96-15.22-88.75v-66.84h37.13
		c24.51,0,43.07,2.48,55.7,7.43c11.88,5.2,21.78,14.36,29.7,27.48c7.67,12.87,11.51,28.35,11.51,46.42
		C404.62,360.53,398.68,380.21,386.8,397.04z"/>
</g>
<linearGradient id="SVGID_2_" gradientUnits="userSpaceOnUse" x1="114.654" y1="249.6099" x2="196.9397" y2="251.3241">
	<stop  offset="0" style="stop-color:#235657"/>
	<stop  offset="1" style="stop-color:#23569C"/>
</linearGradient>
<path class="st1" d="M160.77,67.26c6.49,0,12.09,0.02,16.85,0.07v182.81v182.81c-4.76,0.05-10.35,0.07-16.85,0.07
	c-12.45,0-26.53-0.09-40.15-0.17c-0.05,0-0.11,0-0.16,0c22.09-23.39,25.23-60.87,25.23-90.01v-92.69v-92.69
	c0-29.14-3.14-66.63-25.23-90.01c0.05,0,0.11,0,0.17,0C134.24,67.34,148.32,67.26,160.77,67.26 M160.77,54.26
	c-23.17,0-51.89,0.3-72.9,0.33c-1.5,0-2.71,1.22-2.71,2.72c0,2.33,1.51,4.36,3.71,5.1c29.21,9.89,43.82,38.94,43.82,95.04v92.69
	v92.69c0,56.1-14.61,85.14-43.82,95.04c-2.2,0.75-3.71,2.78-3.71,5.1c0,1.5,1.21,2.71,2.71,2.72c21.01,0.03,49.73,0.33,72.9,0.33
	c12.09,0,22.67-0.08,29.85-0.33V250.14V54.59C183.44,54.34,172.86,54.26,160.77,54.26L160.77,54.26z"/>
<path d="M-162.51,237c33.17-16.83,49.76-44.31,49.76-82.43c0-30.45-9.16-55.57-27.48-75.38c-18.56-19.55-43.57-29.33-96.38-29.33
	l-63.5,4.46v391.37c8.91,0,42.41,0.61,57.76,1.86c17.08,1.73,32.92,2.6,47.53,2.6c39.6,0,68.32-10.89,86.15-32.68
	c17.57-21.78,26.36-47.16,26.36-76.12C-82.3,283.92-109.04,249.14-162.51,237z M-248.28,155.68c0-32.68,2.23-55.7,6.68-69.07
	c6.43-5.2,14.97-7.8,25.62-7.8c19.31,0,35.89,6.44,49.76,19.31c13.86,13.12,20.79,32.18,20.79,57.18c0,24.26-6.44,42.83-19.31,55.7
	c-12.87,12.87-31.19,19.31-54.96,19.31h-28.59V155.68z M-132.06,397.04c-12.38,16.84-33.05,25.25-62.01,25.25
	c-17.33,0-30.33-3.34-38.99-10.03c-10.15-12.38-15.22-41.96-15.22-88.75v-66.84h37.13c24.51,0,43.07,2.48,55.7,7.43
	c11.88,5.2,21.78,14.36,29.7,27.48c7.67,12.87,11.51,28.35,11.51,46.42C-114.23,360.53-120.18,380.21-132.06,397.04z"/>
<g>
	<path d="M-358.09,67.26c6.49,0,12.09,0.02,16.85,0.07v182.81v182.81c-4.76,0.05-10.35,0.07-16.85,0.07
		c-12.45,0-26.53-0.09-40.15-0.17c-0.05,0-0.11,0-0.16,0c22.09-23.39,25.23-60.87,25.23-90.01v-92.69v-92.69
		c0-29.14-3.14-66.63-25.23-90.01c0.05,0,0.11,0,0.17,0C-384.62,67.34-370.54,67.26-358.09,67.26 M-358.09,54.26
		c-23.17,0-51.89,0.3-72.9,0.33c-1.5,0-2.71,1.22-2.71,2.72c0,2.33,1.51,4.36,3.71,5.1c29.21,9.89,43.82,38.94,43.82,95.04v92.69
		v92.69c0,56.1-14.61,85.14-43.82,95.04c-2.2,0.75-3.71,2.78-3.71,5.1c0,1.5,1.21,2.71,2.71,2.72c21.01,0.03,49.73,0.33,72.9,0.33
		c12.09,0,22.67-0.08,29.85-0.33V250.14V54.59C-335.42,54.34-346,54.26-358.09,54.26L-358.09,54.26z"/>
</g>
</svg>
